<?xml version="1.0" encoding="utf-8"?>
<!-- Generator: Adobe Illustrator 24.2.2, SVG Export Plug-In . SVG Version: 6.00 Build 0)  -->
<svg version="1.1" id="Layer_1" xmlns="http://www.w3.org/2000/svg" xmlns:xlink="http://www.w3.org/1999/xlink" x="0px" y="0px"
	 viewBox="0 0 1000 1000" style="enable-background:new 0 0 1000 1000;" xml:space="preserve">
<style type="text/css">
	.st0{fill:#231F20;}
</style>
<path class="st0" d="M854.89,798.18v1.61c0,17.83-14.45,32.26-32.26,32.26c-17.83,0-32.26-14.44-32.26-32.26v-1.61
	c0-17.83,14.44-32.26,32.26-32.26C840.44,765.92,854.89,780.36,854.89,798.18z M177.37,248.39c17.81,0,32.26-14.44,32.26-32.26
	v-1.61c0-17.83-14.45-32.26-32.26-32.26c-17.83,0-32.26,14.44-32.26,32.26v1.61C145.11,233.95,159.54,248.39,177.37,248.39z
	 M822.63,253.16c-17.83,0-32.26,14.45-32.26,32.26v74.45c0-0.08,0-0.16-0.02-0.24c-0.19,17.65-14.57,31.89-32.25,31.89
	c-17.7,0-32.05-14.24-32.25-31.89c-0.02,0.13-0.02,0.24-0.02,0.37V130.16c0-17.83-14.45-32.26-32.26-32.26
	c-17.83,0-32.26,14.44-32.26,32.26v77.61c-0.06,17.78-14.49,32.15-32.26,32.15c-17.83,0-32.26-14.44-32.26-32.26V170.5
	c0-17.81-14.45-32.26-32.26-32.26c-17.83,0-32.26,14.45-32.26,32.26v98.84c-0.06,17.76-14.49,32.15-32.26,32.15
	c-17.83,0-32.26-14.45-32.26-32.26V152.16c0-17.81-14.45-32.26-32.26-32.26c-17.83,0-32.26,14.45-32.26,32.26v63.27
	c-0.06,17.78-14.49,32.15-32.26,32.15c-17.83,0-32.26-14.44-32.26-32.26v-91.27c0-17.81-14.45-32.26-32.26-32.26
	c-17.83,0-32.26,14.45-32.26,32.26v255.62c-0.06,17.76-14.49,32.15-32.26,32.15c-17.83,0-32.26-14.45-32.26-32.26v-64.78
	c0-17.81-14.45-32.26-32.26-32.26c-17.83,0-32.26,14.45-32.26,32.26V743.9c0,17.83,14.44,32.26,32.26,32.26
	c17.81,0,32.26-14.44,32.26-32.26v-45.7c0-17.83,14.44-32.26,32.26-32.26c17.78,0,32.2,14.37,32.26,32.15v152.19
	c0,17.83,14.44,32.26,32.26,32.26c17.81,0,32.26-14.44,32.26-32.26v-64.06c0-17.81,14.44-32.26,32.26-32.26
	c17.78,0,32.2,14.39,32.26,32.15v36.05c0,17.81,14.44,32.26,32.26,32.26c17.81,0,32.26-14.45,32.26-32.26v-94.61
	c0-17.83,14.44-32.26,32.26-32.26c17.78,0,32.2,14.37,32.26,32.15v148.52c0,17.81,14.44,32.26,32.26,32.26
	c17.81,0,32.26-14.45,32.26-32.26V706.01c0-17.83,14.44-32.26,32.26-32.26c17.78,0,32.2,14.37,32.26,32.15v79.58
	c0,17.83,14.44,32.26,32.26,32.26c17.81,0,32.26-14.44,32.26-32.26V651.47c0-17.83,14.44-32.26,32.26-32.26
	c17.78,0,32.2,14.37,32.26,32.15v43.65c0,17.81,14.44,32.26,32.26,32.26c17.81,0,32.26-14.45,32.26-32.26V285.43
	C854.89,267.62,840.44,253.16,822.63,253.16z"/>
</svg>
