<?xml version="1.0" encoding="utf-8"?>
<!-- Generator: Adobe Illustrator 24.2.2, SVG Export Plug-In . SVG Version: 6.00 Build 0)  -->
<svg version="1.1" id="Layer_1" xmlns="http://www.w3.org/2000/svg" xmlns:xlink="http://www.w3.org/1999/xlink" x="0px" y="0px"
	 viewBox="0 0 500 500" style="enable-background:new 0 0 500 500;" xml:space="preserve">
<style type="text/css">
	.st0{fill:url(#SVGID_1_);}
	.st1{opacity:0.5;fill:#D2AA46;}
</style>
<linearGradient id="SVGID_1_" gradientUnits="userSpaceOnUse" x1="250" y1="126.5368" x2="250" y2="324.6">
	<stop  offset="0" style="stop-color:#FCF3CD"/>
	<stop  offset="1" style="stop-color:#FCD25A"/>
</linearGradient>
<path class="st0" d="M433.86,386.65H66.14c-11.66,0-21.12-9.45-21.12-21.12V134.47c0-11.66,9.45-21.12,21.12-21.12h367.71
	c11.66,0,21.12,9.45,21.12,21.12v231.07C454.97,377.19,445.52,386.65,433.86,386.65z"/>
<path class="st1" d="M454.24,135.88c-7.21,7.91-14.64,15.54-22.15,23.08c-7.49,7.56-15.11,14.96-22.76,22.32
	c-15.34,14.69-30.96,29.01-46.74,43.13l-11.88,10.53c-3.97,3.51-7.99,6.95-11.98,10.42c-7.98,6.95-16.01,13.84-24.11,20.64
	l-12.16,10.19l-3.04,2.54l-0.79,0.64l-0.97,0.74l-1.95,1.47c-2.54,2.03-5.39,3.64-8.16,5.37c-5.73,3.14-11.82,5.59-18.13,7.32
	c-6.35,1.58-12.86,2.41-19.4,2.5c-6.54-0.08-13.05-0.92-19.41-2.48c-6.31-1.73-12.4-4.18-18.14-7.31c-1.4-0.84-2.78-1.71-4.16-2.57
	c-0.68-0.45-1.4-0.84-2.04-1.34l-1.96-1.46l-1.95-1.47l-0.97-0.74c-0.31-0.24-0.53-0.42-0.79-0.64l-3.05-2.54l-12.17-10.18
	c-8.09-6.81-16.13-13.68-24.11-20.63l-11.98-10.42l-11.87-10.54c-15.79-14.12-31.41-28.44-46.73-43.14
	c-7.65-7.36-15.27-14.77-22.76-22.33c-7.5-7.54-14.93-15.18-22.13-23.1l174.92,122.26c17.6,12.3,41,12.3,58.6,0L454.24,135.88z"/>
</svg>
